Coordinates
version=1
nRows=60
nColumns=12
inDegrees=yes

Units are S.I. units (second, meters, Newtons, ...)
Angles are in degrees

endheader
time	SC_y	SC_z	SC_x	AC_y	AC_z	AC_x	GH_y	GH_z	GH_yy	EL_x	PS_y
       0.0              -35.16         -2.872          20.07          42.13         -13.63         0.9226          151.8          54.03         -149.9           70.2          106.4
   0.03253              -35.16         -2.869          20.08          42.13         -13.62         0.9243          151.8          54.03         -149.8           70.2          106.4
   0.06506              -35.16         -2.866          20.08          42.13         -13.62         0.9261          151.7          54.04         -149.8           70.2          106.4
   0.09759              -35.16         -2.863          20.09          42.14         -13.62          0.928          151.7          54.04         -149.8          70.21          106.4
    0.1301              -35.16         -2.859          20.09          42.14         -13.62         0.9301          151.7          54.04         -149.8          70.21          106.4
    0.1627              -35.15         -2.856           20.1          42.14         -13.62         0.9322          151.6          54.05         -149.7          70.21          106.4
    0.1952              -35.15         -2.852           20.1          42.14         -13.61         0.9345          151.6          54.05         -149.7          70.22          106.4
    0.2277              -35.15         -2.847          20.11          42.15         -13.61          0.937          151.5          54.06         -149.7          70.22          106.4
    0.2602              -35.15         -2.843          20.12          42.15         -13.61         0.9397          151.5          54.06         -149.6          70.23          106.4
    0.2928              -35.15         -2.838          20.12          42.16         -13.61         0.9425          151.4          54.07         -149.6          70.23          106.4
    0.3253              -35.15         -2.833          20.13          42.16          -13.6         0.9456          151.3          54.08         -149.6          70.24          106.4
    0.3578              -35.15         -2.827          20.14          42.17          -13.6         0.9489          151.3          54.08         -149.5          70.24          106.4
    0.3904              -35.15         -2.821          20.15          42.17          -13.6         0.9524          151.2          54.09         -149.5          70.25          106.4
    0.4229              -35.14         -2.815          20.16          42.18         -13.59         0.9563          151.1           54.1         -149.4          70.26          106.4
    0.4554              -35.14         -2.807          20.17          42.18         -13.59         0.9604          151.0          54.11         -149.4          70.26          106.4
     0.488              -35.14           -2.8          20.18          42.19         -13.58         0.9649          150.9          54.12         -149.3          70.27          106.3
    0.5205              -35.14         -2.791           20.2          42.19         -13.58         0.9698          150.8          54.13         -149.3          70.28          106.3
     0.553              -35.13         -2.782          20.21           42.2         -13.57         0.9751          150.7          54.14         -149.2          70.29          106.3
    0.5855              -35.13         -2.772          20.22          42.21         -13.57          0.981          150.6          54.15         -149.1           70.3          106.3
    0.6181              -35.13         -2.761          20.24          42.22         -13.56         0.9873          150.5          54.16         -149.0          70.31          106.3
    0.6506              -35.12          -2.75          20.26          42.23         -13.55         0.9943          150.3          54.18         -149.0          70.33          106.3
    0.6831              -35.12         -2.736          20.28          42.24         -13.55          1.002          150.1          54.19         -148.9          70.34          106.3
    0.7157              -35.12         -2.722           20.3          42.25         -13.54          1.011          150.0          54.21         -148.7          70.35          106.3
    0.7482              -35.11         -2.706          20.33          42.26         -13.53           1.02          149.8          54.23         -148.6          70.37          106.3
    0.7807              -35.11         -2.688          20.35          42.28         -13.52           1.03          149.5          54.25         -148.5          70.39          106.3
    0.8133               -35.1         -2.668          20.38           42.3         -13.51          1.042          149.3          54.27         -148.3          70.41          106.2
    0.8458               -35.1         -2.646          20.42          42.31         -13.49          1.055          149.0           54.3         -148.2          70.43          106.2
    0.8783              -35.09          -2.62          20.46          42.33         -13.48           1.07          148.7          54.33         -148.0          70.46          106.2
    0.9108              -35.08         -2.592           20.5          42.36         -13.46          1.087          148.4          54.36         -147.8          70.49          106.2
    0.9434              -35.07          -2.56          20.55          42.38         -13.44          1.105          148.0           54.4         -147.5          70.52          106.2
    0.9759              -35.06         -2.523          20.61          42.42         -13.42          1.127          147.5          54.45         -147.3          70.56          106.1
     1.008              -35.05         -2.481          20.67          42.45          -13.4          1.152          147.0           54.5         -147.0          70.61          106.1
     1.041              -35.03         -2.432          20.75          42.49         -13.37           1.18          146.4          54.56         -146.6          70.66          106.1
     1.073              -35.02         -2.375          20.83          42.54         -13.34          1.214          145.7          54.62         -146.2          70.72          106.0
     1.106               -35.0         -2.309          20.93          42.59          -13.3          1.252          144.9           54.7         -145.7          70.78          106.0
     1.139              -34.98         -2.231          21.05          42.66         -13.25          1.298          143.9           54.8         -145.1          70.87          105.9
     1.171              -34.95         -2.138           21.2          42.73          -13.2          1.353          142.8          54.91         -144.4          70.96          105.8
     1.204              -34.92         -2.026          21.37          42.82         -13.13          1.418          141.4          55.04         -143.6          71.08          105.7
     1.236              -34.88         -1.892          21.57          42.93         -13.05          1.497          139.8          55.21         -142.6          71.22          105.6
     1.269              -34.83         -1.727          21.82          43.07         -12.96          1.593          137.7           55.4         -141.4          71.39          105.5
     1.301              -34.78         -1.524          22.14          43.24         -12.84          1.712          135.2          55.65         -139.8           71.6          105.3
     1.334               -34.7          -1.27          22.52          43.44         -12.69          1.861          132.1          55.95         -138.0          71.87          105.1
     1.366              -34.61        -0.9511          23.01          43.71          -12.5          2.048          128.2          56.33         -135.6           72.2          104.9
     1.399               -34.5        -0.5454          23.63          44.04         -12.26          2.285          123.2          56.82         -132.6          72.62          104.6
     1.431              -34.35         -0.026          24.43          44.47         -11.96          2.589          116.8          57.44         -128.7          73.16          104.2
     1.464              -34.16         0.6405          25.45          45.02         -11.57           2.98          108.6          58.24         -123.8          73.86          103.6
     1.496              -33.92          1.492          26.75          45.72         -11.07          3.478          98.14          59.27         -117.4          74.74          103.0
     1.529              -33.61          2.562          28.39           46.6         -10.44          4.105          84.97          60.55         -109.5          75.86          102.1
     1.561              -33.24          3.867          30.38          47.67          -9.68          4.869          68.93          62.12          -99.8          77.22          101.1
     1.594              -32.81          5.379           32.7          48.91         -8.795          5.755          50.33          63.93         -88.57          78.79          99.88
     1.627              -32.35          7.016           35.2          50.26         -7.836          6.714          30.19          65.89         -76.41           80.5          98.58
     1.659              -31.88          8.653          37.71           51.6         -6.878          7.672          10.06          67.86         -64.25           82.2          97.29
     1.692              -31.45          10.17          40.02          52.84         -5.992          8.558         -8.541          69.67         -53.02          83.78          96.09
     1.724              -31.08          11.47          42.02          53.92         -5.229          9.322         -24.59          71.24         -43.33          85.14          95.06
     1.757              -30.78          12.54          43.66           54.8         -4.602          9.949         -37.75          72.52         -35.37          86.25          94.21
     1.789              -30.54          13.39          44.96           55.5         -4.103          10.45         -48.22          73.55         -29.05          87.14          93.54
     1.822              -30.35          14.06          45.98          56.04         -3.713          10.84         -56.42          74.35          -24.1          87.83          93.01
     1.854               -30.2          14.58          46.77          56.47         -3.409          11.14         -62.81          74.97         -20.24          88.37           92.6
     1.887              -30.08          14.98           47.4           56.8         -3.171          11.38          -67.8          75.46         -17.23           88.8          92.28
     1.919              -29.99           15.3          47.88          57.07         -2.984          11.57         -71.72          75.84         -14.86          89.13          92.03
